HIERARCHY
ROOT Hips
{
	OFFSET 0.000000 100.481300 0.000000
	CHANNELS 6 Xposition Yposition Zposition Xrotation Yrotation Zrotation 
	JOINT Spine
	{
		OFFSET -0.279200 12.230698 -2.892100
		CHANNELS 3 Xrotation Yrotation Zrotation
		JOINT Spine1
		{
			OFFSET -0.232667 10.192268 -1.242267
			CHANNELS 3 Xrotation Yrotation Zrotation
			JOINT Spine1_split
			{
				OFFSET -0.232667 10.192268 -1.242267
				CHANNELS 3 Xrotation Yrotation Zrotation
				JOINT Spine2
				{
					OFFSET -0.232667 10.192268 -1.242267
					CHANNELS 3 Xrotation Yrotation Zrotation
					JOINT Neck
					{
						OFFSET -0.418800 17.814194 8.416900
						CHANNELS 3 Xrotation Yrotation Zrotation
						JOINT Head
						{
							OFFSET 0.000000 7.031097 3.806800
							CHANNELS 3 Xrotation Yrotation Zrotation
							JOINT HeadTop_End
							{
								OFFSET 0.000000 24.646606 12.978600
								CHANNELS 3 Xrotation Yrotation Zrotation
								End Site
								{
									OFFSET 0.000000 0.000000 0.000000
								}
							}
						}
					}
					JOINT LeftShoulder
					{
						OFFSET 8.476499 7.247704 -3.868750
						CHANNELS 3 Xrotation Yrotation Zrotation
						JOINT LeftShoulder_split
						{
							OFFSET 8.476499 7.247704 -3.868750
							CHANNELS 3 Xrotation Yrotation Zrotation
							JOINT LeftArm
							{
								OFFSET 9.308998 -2.777710 0.208600
								CHANNELS 3 Xrotation Yrotation Zrotation
								JOINT LeftForeArm
								{
									OFFSET 29.972298 0.000000 0.000000
									CHANNELS 3 Xrotation Yrotation Zrotation
									JOINT LeftHand
									{
										OFFSET 26.026505 0.000000 0.000000
										CHANNELS 3 Xrotation Yrotation Zrotation
										JOINT LeftHandThumb1
										{
											OFFSET 12.240501 -7.147949 9.207150
											CHANNELS 3 Xrotation Yrotation Zrotation
											JOINT LeftHandThumb2
											{
												OFFSET 4.138618 -2.389435 2.389433
												CHANNELS 3 Xrotation Yrotation Zrotation
												JOINT LeftHandThumb3
												{
													OFFSET 2.726913 -1.574387 1.574386
													CHANNELS 3 Xrotation Yrotation Zrotation
													JOINT LeftHandThumb4
													{
														OFFSET 3.941010 -2.275345 2.275342
														CHANNELS 3 Xrotation Yrotation Zrotation
														End Site
														{
															OFFSET 0.000000 0.000000 0.000000
														}
													}
												}
											}
										}
										JOINT LeftHandIndex1
										{
											OFFSET 24.424698 -1.985611 5.953459
											CHANNELS 3 Xrotation Yrotation Zrotation
											JOINT LeftHandIndex2
											{
												OFFSET 6.426697 0.000000 0.000000
												CHANNELS 3 Xrotation Yrotation Zrotation
												JOINT LeftHandIndex3
												{
													OFFSET 5.337898 0.000000 0.000000
													CHANNELS 3 Xrotation Yrotation Zrotation
													JOINT LeftHandIndex4
													{
														OFFSET 4.409401 0.000000 0.000000
														CHANNELS 3 Xrotation Yrotation Zrotation
														End Site
														{
															OFFSET 0.000000 0.000000 0.000000
														}
													}
												}
											}
										}
										JOINT LeftHandMiddle1
										{
											OFFSET 23.810104 0.000000 0.000000
											CHANNELS 3 Xrotation Yrotation Zrotation
											JOINT LeftHandMiddle2
											{
												OFFSET 7.176498 0.000000 0.000000
												CHANNELS 3 Xrotation Yrotation Zrotation
												JOINT LeftHandMiddle3
												{
													OFFSET 6.774902 0.000000 0.000000
													CHANNELS 3 Xrotation Yrotation Zrotation
													JOINT LeftHandMiddle4
													{
														OFFSET 5.403328 0.000000 0.000000
														CHANNELS 3 Xrotation Yrotation Zrotation
														End Site
														{
															OFFSET 0.000000 0.000000 0.000000
														}
													}
												}
											}
										}
										JOINT LeftHandRing1
										{
											OFFSET 22.908401 -0.839279 -6.020567
											CHANNELS 3 Xrotation Yrotation Zrotation
											JOINT LeftHandRing2
											{
												OFFSET 6.337502 0.000000 0.000000
												CHANNELS 3 Xrotation Yrotation Zrotation
												JOINT LeftHandRing3
												{
													OFFSET 5.779297 0.000000 0.000000
													CHANNELS 3 Xrotation Yrotation Zrotation
													JOINT LeftHandRing4
													{
														OFFSET 4.965698 0.000000 0.000000
														CHANNELS 3 Xrotation Yrotation Zrotation
														End Site
														{
															OFFSET 0.000000 0.000000 0.000000
														}
													}
												}
											}
										}
										JOINT LeftHandPinky1
										{
											OFFSET 20.037003 -1.530319 -10.950146
											CHANNELS 3 Xrotation Yrotation Zrotation
											JOINT LeftHandPinky2
											{
												OFFSET 5.254700 0.000000 0.000000
												CHANNELS 3 Xrotation Yrotation Zrotation
												JOINT LeftHandPinky3
												{
													OFFSET 4.810204 0.000000 0.000000
													CHANNELS 3 Xrotation Yrotation Zrotation
													JOINT LeftHandPinky4
													{
														OFFSET 3.647202 0.000000 0.000000
														CHANNELS 3 Xrotation Yrotation Zrotation
														End Site
														{
															OFFSET 0.000000 0.000000 0.000000
														}
													}
												}
											}
										}
									}
								}
							}
						}
					}
					JOINT RightShoulder
					{
						OFFSET -7.570500 7.247704 -3.868750
						CHANNELS 3 Xrotation Yrotation Zrotation
						JOINT RightShoulder_split
						{
							OFFSET -7.570500 7.247704 -3.868750
							CHANNELS 3 Xrotation Yrotation Zrotation
							JOINT RightArm
							{
								OFFSET -9.308998 -2.777710 0.208500
								CHANNELS 3 Xrotation Yrotation Zrotation
								JOINT RightForeArm
								{
									OFFSET -29.972300 0.000000 0.000000
									CHANNELS 3 Xrotation Yrotation Zrotation
									JOINT RightHand
									{
										OFFSET -26.026505 0.000000 0.000000
										CHANNELS 3 Xrotation Yrotation Zrotation
										JOINT RightHandThumb1
										{
											OFFSET -12.240601 -7.148026 9.207092
											CHANNELS 3 Xrotation Yrotation Zrotation
											JOINT RightHandThumb2
											{
												OFFSET -4.138618 -2.389435 2.389433
												CHANNELS 3 Xrotation Yrotation Zrotation
												JOINT RightHandThumb3
												{
													OFFSET -2.726974 -1.574417 1.574421
													CHANNELS 3 Xrotation Yrotation Zrotation
													JOINT RightHandThumb4
													{
														OFFSET -3.941010 -2.275345 2.275343
														CHANNELS 3 Xrotation Yrotation Zrotation
														End Site
														{
															OFFSET 0.000000 0.000000 0.000000
														}
													}
												}
											}
										}
										JOINT RightHandIndex1
										{
											OFFSET -24.424698 -1.985657 5.953444
											CHANNELS 3 Xrotation Yrotation Zrotation
											JOINT RightHandIndex2
											{
												OFFSET -6.426697 0.000000 0.000000
												CHANNELS 3 Xrotation Yrotation Zrotation
												JOINT RightHandIndex3
												{
													OFFSET -5.337898 0.000000 0.000000
													CHANNELS 3 Xrotation Yrotation Zrotation
													JOINT RightHandIndex4
													{
														OFFSET -4.409401 0.000000 0.000000
														CHANNELS 3 Xrotation Yrotation Zrotation
														End Site
														{
															OFFSET 0.000000 0.000000 0.000000
														}
													}
												}
											}
										}
										JOINT RightHandMiddle1
										{
											OFFSET -23.810097 0.000000 0.000000
											CHANNELS 3 Xrotation Yrotation Zrotation
											JOINT RightHandMiddle2
											{
												OFFSET -7.176498 0.000000 0.000000
												CHANNELS 3 Xrotation Yrotation Zrotation
												JOINT RightHandMiddle3
												{
													OFFSET -6.774902 0.000000 0.000000
													CHANNELS 3 Xrotation Yrotation Zrotation
													JOINT RightHandMiddle4
													{
														OFFSET -5.403328 0.000000 0.000000
														CHANNELS 3 Xrotation Yrotation Zrotation
														End Site
														{
															OFFSET 0.000000 0.000000 0.000000
														}
													}
												}
											}
										}
										JOINT RightHandRing1
										{
											OFFSET -22.908302 -0.839325 -6.020576
											CHANNELS 3 Xrotation Yrotation Zrotation
											JOINT RightHandRing2
											{
												OFFSET -6.337502 0.000000 0.000000
												CHANNELS 3 Xrotation Yrotation Zrotation
												JOINT RightHandRing3
												{
													OFFSET -5.779297 0.000000 0.000000
													CHANNELS 3 Xrotation Yrotation Zrotation
													JOINT RightHandRing4
													{
														OFFSET -4.965698 0.000000 0.000000
														CHANNELS 3 Xrotation Yrotation Zrotation
														End Site
														{
															OFFSET 0.000000 0.000000 0.000000
														}
													}
												}
											}
										}
										JOINT RightHandPinky1
										{
											OFFSET -20.037003 -1.530334 -10.950259
											CHANNELS 3 Xrotation Yrotation Zrotation
											JOINT RightHandPinky2
											{
												OFFSET -5.254700 0.000000 0.000000
												CHANNELS 3 Xrotation Yrotation Zrotation
												JOINT RightHandPinky3
												{
													OFFSET -4.810204 0.000000 0.000000
													CHANNELS 3 Xrotation Yrotation Zrotation
													JOINT RightHandPinky4
													{
														OFFSET -3.647202 0.000000 0.000000
														CHANNELS 3 Xrotation Yrotation Zrotation
														End Site
														{
															OFFSET 0.000000 0.000000 0.000000
														}
													}
												}
											}
										}
									}
								}
							}
						}
					}
				}
			}
		}
	}
	JOINT LeftUpLeg
	{
		OFFSET 15.427100 -6.655098 0.678600
		CHANNELS 3 Xrotation Yrotation Zrotation
		JOINT LeftLeg
		{
			OFFSET 4.081073 -39.591068 13.024000
			CHANNELS 3 Xrotation Yrotation Zrotation
			JOINT LeftFoot
			{
				OFFSET -4.081074 -37.707932 -15.979700
				CHANNELS 3 Xrotation Yrotation Zrotation
				JOINT LeftToeBase
				{
					OFFSET 5.346399 -15.068900 20.645000
					CHANNELS 3 Xrotation Yrotation Zrotation
					JOINT LeftToe_End
					{
						OFFSET 2.754700 0.931300 11.300900
						CHANNELS 3 Xrotation Yrotation Zrotation
						End Site
						{
							OFFSET 0.000000 0.000000 0.000000
						}
					}
				}
			}
		}
	}
	JOINT RightUpLeg
	{
		OFFSET -15.569500 -6.655098 0.678600
		CHANNELS 3 Xrotation Yrotation Zrotation
		JOINT RightLeg
		{
			OFFSET -4.081825 -39.591045 13.023800
			CHANNELS 3 Xrotation Yrotation Zrotation
			JOINT RightFoot
			{
				OFFSET 4.081824 -37.707954 -15.979600
				CHANNELS 3 Xrotation Yrotation Zrotation
				JOINT RightToeBase
				{
					OFFSET -5.346400 -15.068900 20.645000
					CHANNELS 3 Xrotation Yrotation Zrotation
					JOINT RightToe_End
					{
						OFFSET -2.754700 0.931300 11.300900
						CHANNELS 3 Xrotation Yrotation Zrotation
						End Site
						{
							OFFSET 0.000000 0.000000 0.000000
						}
					}
				}
			}
		}
	}
}
MOTION
Frames: 4
Frame Time: 0.016667
-17.523540 14.155258 -64.672501 -87.041356 25.712227 6.608805 54.339021 10.454870 -4.188490 20.535751 3.211057 0.186197 0.000000 0.000000 0.000000 20.612232 2.862306 0.333966 6.354677 0.273872 -2.216745 32.669211 -1.249311 -2.725193 0.000002 0.000001 -0.000001 0.690090 -7.698574 -13.129605 0.000000 0.000000 0.000000 -23.121922 -24.042645 -24.824218 0.000009 -63.058813 0.000017 -1.509116 -20.163902 -5.466378 -8.685554 -15.954361 1.210026 21.854481 36.310816 -10.832593 0.138404 22.599827 19.532516 0.000002 -0.000002 0.000001 0.653211 -15.996959 0.940954 1.493559 3.908524 -41.813964 0.838318 3.021706 -31.005350 -0.000002 -0.000000 0.000000 0.176385 0.770534 4.717965 1.760991 4.187610 -45.600955 0.967724 3.226956 -33.379305 -0.000000 -0.000002 0.000000 -0.158544 11.618685 1.853061 2.336934 4.681156 -53.039496 0.661810 2.706794 -27.474263 -0.000001 -0.000000 0.000000 5.097409 24.546773 -12.359237 2.096993 4.491191 -50.039195 2.051399 4.452705 -49.454535 -0.000001 0.000001 -0.000000 0.136772 13.961785 14.788466 0.000000 0.000000 0.000000 -26.720445 -13.516584 33.282112 0.000003 41.763055 -0.000006 -11.101725 -25.897378 44.633907 -8.583347 16.136735 -7.178722 7.869617 -18.273626 9.753313 0.110988 -5.682749 -15.719778 -0.000001 0.000001 0.000003 1.587525 7.438682 -9.026617 0.644888 -2.366449 30.483920 0.278308 -1.587324 19.887293 -0.000001 0.000002 -0.000000 2.008395 2.097536 -33.232801 0.823263 -2.645913 34.561679 0.347154 -1.766051 22.240411 -0.000000 -0.000000 0.000001 -0.161314 -5.730952 -3.494308 1.189553 -3.110740 41.846045 0.187740 -1.310298 16.306795 0.000001 0.000000 -0.000002 -0.080025 -27.023995 -1.328607 1.055490 -2.954427 39.312151 0.931942 -2.796948 36.850025 0.000001 -0.000001 0.000002 -66.637504 3.829514 37.790542 66.335234 12.624910 -1.434167 29.383279 5.356793 -8.217090 0.139580 -0.000014 -0.000004 -0.000002 -0.000000 0.000001 -42.007624 13.945155 -48.966015 101.151174 11.865325 13.832421 29.039034 4.617097 27.981528 -0.000012 -0.000000 0.000007 0.000000 0.000000 -0.000001 
-17.770786 14.124413 -66.192902 -91.424657 25.159960 6.980908 54.260877 11.545646 -3.397465 20.987660 3.430233 0.332322 0.000000 0.000000 0.000000 21.083092 3.010466 0.480107 6.011282 0.280388 -2.502171 29.147539 -1.772884 -3.475379 -0.000000 0.000002 0.000003 0.654633 -7.640296 -13.060550 0.000000 0.000000 0.000000 -19.361650 -24.125225 -21.499019 0.000033 -64.350784 0.000025 -16.742476 -19.468580 -13.423391 -8.647218 -15.819239 1.255090 21.674190 36.224946 -10.484469 0.031413 22.546837 19.494892 0.000000 0.000001 -0.000002 0.555389 -15.865703 0.644502 1.453105 3.862937 -41.217070 0.820749 2.992320 -30.670483 -0.000000 -0.000002 -0.000003 0.167784 0.758911 4.236369 1.725444 4.152596 -45.111958 0.956604 3.210064 -33.181476 -0.000000 0.000001 0.000001 -0.074933 11.507227 1.341949 2.289186 4.644977 -52.452144 0.662736 2.708585 -27.493981 -0.000000 0.000001 0.000003 5.165655 24.212508 -12.763530 2.067873 4.466706 -49.666349 2.023901 4.429078 -49.099310 -0.000001 0.000001 0.000001 0.281181 14.030638 13.544992 0.000000 0.000000 0.000000 -21.025798 -14.046610 33.984354 -0.000007 42.419706 0.000009 -13.856782 -29.911215 39.389544 -8.524696 16.035843 -7.103563 7.804556 -18.123448 9.475623 0.007337 -5.624723 -15.681814 -0.000001 -0.000001 0.000003 1.572314 7.449081 -8.920430 0.613290 -2.311965 29.709837 0.264086 -1.547497 19.367693 -0.000002 0.000000 -0.000000 1.979185 2.094969 -32.626926 0.792735 -2.601087 33.894435 0.335591 -1.737474 21.861716 -0.000000 0.000000 -0.000000 -0.150403 -5.701279 -3.349975 1.148414 -3.064238 41.082099 0.183963 -1.297339 16.140927 0.000001 0.000000 -0.000001 -0.000303 -26.834545 -1.130545 1.024677 -2.916453 38.710585 0.905176 -2.760914 36.297859 0.000002 -0.000000 0.000000 -63.030768 2.857136 37.317469 64.029014 12.110507 -0.075366 31.658764 4.969353 -5.656688 0.216190 -0.000014 -0.000022 -0.000002 -0.000000 0.000001 -37.791915 12.879383 -44.688866 99.989578 10.742033 10.610186 26.606252 3.011310 28.852153 -0.000009 0.000006 0.000000 0.000000 -0.000000 -0.000000 
-17.895241 14.152992 -67.733704 -96.028205 24.569271 7.476629 54.136523 12.339944 -2.495789 21.302510 3.531567 0.486722 0.000000 0.000000 0.000000 21.413454 3.045616 0.639502 5.772042 0.276188 -2.724580 26.591371 -2.420398 -3.858301 -0.000001 -0.000001 -0.000000 0.618663 -7.705189 -13.035392 0.000000 0.000000 0.000000 -16.051264 -24.091786 -18.542263 -0.000040 -64.438921 -0.000037 -29.438303 -14.660914 -23.712747 -8.606943 -15.678279 1.302617 21.493728 36.137766 -10.137159 -0.075364 22.493160 19.456788 -0.000001 -0.000002 -0.000000 0.451698 -15.724108 0.326261 1.413711 3.817600 -40.628960 0.803771 2.963541 -30.343587 -0.000002 -0.000001 -0.000001 0.157827 0.750889 3.729256 1.690772 4.117851 -44.631099 0.946006 3.193773 -32.991258 -0.000001 0.000000 -0.000001 0.010150 11.394071 0.806340 2.242472 4.608804 -51.872954 0.664025 2.711035 -27.521016 0.000000 0.000000 0.000000 5.234628 23.869467 -13.188068 2.039548 4.442560 -49.301695 1.997131 4.405845 -48.751998 -0.000001 0.000001 -0.000002 0.368022 14.232612 12.568263 0.000000 0.000000 0.000000 -15.163281 -12.817754 34.004455 0.000004 41.556903 -0.000006 -18.970120 -29.594448 30.817629 -8.466263 15.928993 -7.031910 7.746169 -17.979923 9.203228 -0.094117 -5.572748 -15.646008 -0.000001 0.000000 -0.000002 1.531156 7.435915 -8.676666 0.587248 -2.265755 29.057599 0.253280 -1.516397 18.963431 0.000003 0.000000 0.000000 1.934924 2.080026 -31.865397 0.767977 -2.563897 33.345130 0.327579 -1.717405 21.596170 0.000000 0.000001 0.000000 -0.131338 -5.679938 -3.068234 1.114173 -3.024577 40.437373 0.182707 -1.292944 16.084870 -0.000000 0.000000 0.000000 0.140566 -26.599523 -0.778687 1.000177 -2.885648 38.226458 0.884267 -2.732255 35.861621 -0.000002 -0.000002 -0.000001 -58.810367 2.305319 37.274525 61.629712 11.294183 1.134708 33.733392 3.977084 -4.357781 0.306002 0.000029 -0.000025 -0.000001 -0.000001 -0.000000 -32.218293 12.251478 -41.597030 98.929894 9.849818 7.812436 23.852183 1.255500 30.247824 -0.000007 0.000001 -0.000007 0.000001 0.000001 -0.000002 
-17.939735 14.271393 -69.242058 -100.797664 24.079501 8.036765 53.785913 12.745281 -1.483525 21.392890 3.485087 0.638490 0.000000 0.000000 0.000000 21.512842 2.946440 0.804817 5.701514 0.269790 -2.859060 25.666236 -3.057670 -3.930399 -0.000001 0.000001 -0.000001 0.583242 -7.873916 -13.009927 0.000000 0.000000 0.000000 -13.224169 -24.020097 -16.352841 0.000077 -63.453721 0.000079 -35.332203 -4.373216 -31.544655 -8.564886 -15.531811 1.352401 21.313235 36.049475 -9.790838 -0.181895 22.438737 19.418182 -0.000002 -0.000001 -0.000000 0.342687 -15.572439 -0.012874 1.375393 3.772551 -40.049644 0.787346 2.935354 -30.024576 -0.000000 0.000000 -0.000000 0.146527 0.746362 3.197625 1.656948 4.083396 -44.158276 0.935836 3.178100 -32.808513 0.000000 0.000000 0.000000 0.096292 11.279228 0.247317 2.196754 4.572679 -51.301913 0.665662 2.714113 -27.555141 -0.000000 -0.000000 -0.000001 5.303515 23.518115 -13.631778 2.011998 4.418796 -48.945115 1.971135 4.382951 -48.412552 -0.000001 0.000001 -0.000002 0.413007 14.399159 11.899815 0.000000 0.000000 0.000000 -8.989459 -9.774897 33.560189 0.000001 39.122234 0.000001 -23.648647 -24.014353 23.764216 -8.408939 15.818472 -6.963137 7.693887 -17.841805 8.937313 -0.193313 -5.525012 -15.612240 0.000001 -0.000002 -0.000000 1.460723 7.396309 -8.275152 0.567196 -2.229303 28.546369 0.246184 -1.495587 18.693304 0.000002 -0.000001 0.000001 1.874022 2.050737 -30.926837 0.749636 -2.535821 32.932631 0.323590 -1.707283 21.462662 -0.000000 -0.000000 0.000000 -0.103150 -5.668196 -2.628681 1.087580 -2.993133 39.930693 0.184341 -1.298628 16.157543 -0.000001 0.000001 0.000001 0.348460 -26.329095 -0.252843 0.982750 -2.863414 37.878959 0.869949 -2.712358 35.560130 -0.000002 0.000001 0.000000 -54.243597 2.018236 37.774221 59.415433 10.419504 2.228971 35.021119 2.536784 -4.391412 0.390749 -0.000005 -0.000002 0.000003 -0.000001 0.000001 -26.054412 11.987423 -39.515544 97.952624 8.829197 5.446843 21.511817 -0.283456 31.661270 0.000017 0.000003 -0.000011 0.000001 0.000000 0.000001 
